<svg xmlns="http://www.w3.org/2000/svg" id="Logo" width="210.5" height="44.562" viewBox="0 0 210.5 44.562">
    <defs>
        <style>
            .cls-1{fill:#002575}.cls-2{fill:#d60812}
        </style>
    </defs>
    <g id="Group_120" data-name="Group 120" transform="translate(0 1.292)">
        <path id="Path_95" d="M42.005 34.243l5.645 10.062-7.118 32.276h-7.854z" class="cls-1" data-name="Path 95" transform="translate(-32.678 -34.054)"/>
        <path id="Path_96" d="M117.845 74.94s3.3-5.015 7.059-7.345l6.44 27.594h-8.959z" class="cls-1" data-name="Path 96" transform="translate(-80.508 -52.785)"/>
        <path id="Path_97" d="M66.222 56.63l2.344-9.791 7.919 13.4s5.547-16.851 18.373-26.424l2.681 10.227S84.2 51.5 77.191 74.841z" class="cls-2" data-name="Path 97" transform="translate(-51.517 -33.812)"/>
    </g>
    <path id="Path_98" d="M193.078 38.8h-17.23v10.328h16.729v6.1h-16.729v14.357h17.23v6.1h-23.715V32.706h23.715z" class="cls-1" data-name="Path 98" transform="translate(-109.441 -31.899)"/>
    <path id="Path_99" d="M263.7 38.8v36.88h-6.485V38.8h-9.882v-6.1h26.22v6.1z" class="cls-1" data-name="Path 99" transform="translate(-153.229 -31.899)"/>
    <path id="Path_100" d="M347.573 57.366l13.3 18.316h-7.932l-12.271-17.59h-1.17v17.59h-6.485V32.705h7.6q8.517 0 12.3 3.2a11.765 11.765 0 0 1 4.176 9.409 12.214 12.214 0 0 1-2.618 7.85 11.673 11.673 0 0 1-6.9 4.2M339.5 52.44h2.06q9.213 0 9.213-7.042 0-6.6-8.963-6.6h-2.31z" class="cls-1" data-name="Path 100" transform="translate(-201.349 -31.899)"/>
    <path id="Path_101" d="M410.361 52.968a21.051 21.051 0 0 1 6.653-15.589 21.891 21.891 0 0 1 15.922-6.513 21.491 21.491 0 0 1 15.754 6.568 21.474 21.474 0 0 1 6.6 15.782 21.135 21.135 0 0 1-6.624 15.726 22.709 22.709 0 0 1-31.008.723q-7.292-6.373-7.293-16.7m6.542.081a15.53 15.53 0 0 0 4.787 11.72 15.859 15.859 0 0 0 22.407-.083 15.829 15.829 0 0 0 4.648-11.524 15.748 15.748 0 0 0-4.594-11.525 16.029 16.029 0 0 0-22.629 0 15.5 15.5 0 0 0-4.62 11.412" class="cls-1" data-name="Path 101" transform="translate(-244.787 -30.866)"/>
</svg>
